<svg id="Layer_1" class="w-full" xmlns="http://www.w3.org/2000/svg" viewBox="0 0 687 155"><defs><style>.cls-1{fill:teal}.cls-2{fill:#181547}.cls-3{fill:#181548}.cls-4{fill:#0ba9a1}</style></defs><g><path class="cls-3" d="m159.32,104.13h23.44v11.8h-23.44v19.27h-13.57v-54.6h40.71v11.96h-27.14v11.56Z"></path><path class="cls-3" d="m248.03,107.91c0,15.9-12.44,28.42-28.98,28.42s-28.9-12.53-28.9-28.42,12.44-28.42,28.9-28.42,28.98,12.52,28.98,28.42Zm-13.81,0c0-8.59-6.34-15.82-15.18-15.82s-15.17,7.23-15.17,15.82,6.34,15.82,15.17,15.82,15.18-7.23,15.18-15.82Z"></path><path class="cls-3" d="m305.76,109.75c0,16.94-9.79,26.65-25.45,26.65s-25.37-9.71-25.37-26.65v-29.14h13.65v29.39c0,8.35,4.58,13.73,11.72,13.73s11.8-5.38,11.8-13.73v-29.39h13.65v29.14Z"></path><path class="cls-3" d="m364.84,135.2h-10.52l-26.17-29.95v29.95h-13.57v-54.6h10.36l26.33,30.75v-30.75h13.57v54.6Z"></path><path class="cls-3" d="m396.4,80.61c17.1,0,29.46,11.16,29.46,27.14s-12.36,27.46-29.46,27.46h-22v-54.6h22Zm0,42.39c8.83,0,15.66-6.58,15.66-15.26s-6.82-14.93-15.66-14.93h-8.43v30.19h8.43Z"></path><path class="cls-3" d="m443.36,125.81l-3.61,9.39h-14.45l23.2-54.92h12.93l23.12,54.92h-14.37l-3.69-9.39h-23.12Zm11.56-29.71l-7.06,18.14h14.13l-7.07-18.14Z"></path><path class="cls-3" d="m509.6,92.73v42.47h-13.57v-42.47h-17.42v-12.12h48.33v12.12h-17.34Z"></path><path class="cls-3" d="m546.61,135.2h-13.57v-54.6h13.57v54.6Z"></path><path class="cls-3" d="m612.84,107.91c0,15.9-12.44,28.42-28.98,28.42s-28.9-12.53-28.9-28.42,12.44-28.42,28.9-28.42,28.98,12.52,28.98,28.42Zm-13.81,0c0-8.59-6.34-15.82-15.18-15.82s-15.17,7.23-15.17,15.82,6.34,15.82,15.17,15.82,15.18-7.23,15.18-15.82Z"></path><path class="cls-3" d="m671.37,135.2h-10.52l-26.17-29.95v29.95h-13.57v-54.6h10.36l26.33,30.75v-30.75h13.57v54.6Z"></path></g><g><path class="cls-3" d="m164.51,32.03v25.68h-8.21v-25.68h-10.54v-7.33h29.23v7.33h-10.49Z"></path><path class="cls-3" d="m203.15,57.71h-7.19l-3.74-12.14-3.79,12.14h-7.14l-8.11-23.55h8.25l3.69,12.62,3.98-12.62h6.21l3.98,12.53,3.69-12.53h8.21l-8.06,23.55Z"></path><path class="cls-3" d="m237.58,45.92c0,7.19-5.34,12.53-12.77,12.53s-12.77-5.34-12.77-12.53,5.34-12.28,12.77-12.28,12.77,5.19,12.77,12.28Zm-7.43.05c0-3.06-2.14-5.54-5.29-5.54s-5.34,2.48-5.34,5.54,2.14,5.68,5.34,5.68,5.29-2.53,5.29-5.68Z"></path><path class="cls-3" d="m287.05,41.21c0,9.61-7.53,17.19-17.53,17.19s-17.48-7.57-17.48-17.19,7.53-17.19,17.48-17.19,17.53,7.57,17.53,17.19Zm-8.35,0c0-5.2-3.84-9.57-9.18-9.57s-9.18,4.37-9.18,9.57,3.84,9.57,9.18,9.57,9.18-4.37,9.18-9.57Z"></path><path class="cls-3" d="m307.59,48.05h7.43c-.53,6.07-5.54,10.2-12.04,10.2-7.43,0-12.87-5.15-12.87-12.33s5.44-12.28,12.87-12.28c6.51,0,11.51,4.13,12.04,10.2h-7.43c-.39-2.14-2.18-3.54-4.61-3.54-3.35,0-5.39,2.43-5.39,5.63s2.04,5.68,5.39,5.68c2.43,0,4.22-1.41,4.61-3.55Z"></path><path class="cls-3" d="m342.69,48.1l.05.15h-16.8c.63,2.14,2.28,3.79,5.29,3.79,1.65,0,2.91-.63,3.59-1.7h7.77c-1.12,4.86-5.63,7.91-11.46,7.91-7.72,0-12.87-5.15-12.87-12.33s5-12.28,12.53-12.28c6.84,0,12.04,4.71,12.04,11.8,0,.87,0,1.8-.15,2.67Zm-16.85-4.47h9.61c-.44-2.57-2.14-3.93-4.66-3.93-2.67,0-4.37,1.55-4.95,3.93Z"></path><path class="cls-3" d="m372.11,57.71h-7.87v-1.31c-1.75,1.12-3.88,1.8-6.46,1.8-6.36,0-11.7-5.29-11.7-12.28s5.34-12.28,11.7-12.28c2.57,0,4.71.68,6.46,1.8v-1.26h7.87v23.55Zm-7.87-8.16v-7.28c-1.46-1.7-3.16-2.23-4.9-2.23-3.2,0-5.54,2.62-5.54,5.88s2.33,5.83,5.54,5.83c1.75,0,3.45-.49,4.9-2.18Z"></path><path class="cls-3" d="m401.88,44.26v13.45h-7.91v-12.19c0-3.35-1.7-4.95-4.27-4.95-1.46,0-3.01.83-4.37,2.38v14.76h-7.87v-23.55h7.87v1.6c1.89-1.51,3.98-2.33,6.51-2.33,5.97,0,10.05,4.13,10.05,10.83Z"></path><path class="cls-3" d="m412.27,49.65c.34,2.04,2.04,2.96,4.51,2.96,2.09,0,3.35-.63,3.35-1.65,0-.78-.73-1.41-2.28-1.65l-4.76-.83c-4.08-.68-6.89-2.96-6.89-7.09,0-4.95,4.22-7.87,10.49-7.87,5,0,10.68,1.94,11.02,8.16h-6.99c-.15-1.8-1.8-2.62-3.98-2.62-2.04,0-2.96.78-2.96,1.7,0,.78.58,1.5,2.43,1.84l4.42.73c4.42.83,7.33,2.96,7.33,7.14,0,5.44-4.9,7.96-11.02,7.96s-11.17-2.57-11.65-8.84l6.99.05Z"></path><path class="cls-3" d="m453.49,52.03l-2.18,5.68h-8.74l14.03-33.21h7.82l13.98,33.21h-8.69l-2.23-5.68h-13.98Zm6.99-17.96l-4.27,10.97h8.55l-4.27-10.97Z"></path><path class="cls-3" d="m504.76,68.64h-7.87v-12.19c-1.75,1.07-3.84,1.75-6.41,1.75-6.36,0-11.7-5.29-11.7-12.28s5.34-12.28,11.7-12.28c2.57,0,4.66.68,6.41,1.75v-1.21h7.87v34.47Zm-7.87-19.03v-7.38c-1.46-1.65-3.16-2.18-4.86-2.18-3.2,0-5.54,2.62-5.54,5.88s2.33,5.83,5.54,5.83c1.7,0,3.4-.49,4.86-2.14Z"></path><path class="cls-3" d="m534.28,57.71h-7.87v-1.55c-1.89,1.46-3.93,2.28-6.46,2.28-5.97,0-10.05-4.13-10.05-10.83v-13.45h7.87v12.23c0,3.35,1.75,4.95,4.32,4.95,1.46,0,2.96-.83,4.32-2.33v-14.86h7.87v23.55Z"></path><path class="cls-3" d="m564.47,57.71h-7.87v-1.31c-1.75,1.12-3.88,1.8-6.46,1.8-6.36,0-11.7-5.29-11.7-12.28s5.34-12.28,11.7-12.28c2.57,0,4.71.68,6.46,1.8v-1.26h7.87v23.55Zm-7.87-8.16v-7.28c-1.46-1.7-3.16-2.23-4.9-2.23-3.2,0-5.54,2.62-5.54,5.88s2.33,5.83,5.54,5.83c1.75,0,3.45-.49,4.9-2.18Z"></path><path class="cls-3" d="m585.79,41.25c-3.84.15-6.26,1.17-8.11,3.01v13.45h-7.87v-23.55h7.87v2.52c2.09-1.8,4.61-2.91,8.11-2.91v7.48Z"></path><path class="cls-3" d="m589.19,26.06c0-2.57,2.04-4.47,4.61-4.47s4.61,1.89,4.61,4.47-2.09,4.42-4.61,4.42-4.61-1.89-4.61-4.42Zm8.59,31.66h-7.87v-23.55h7.87v23.55Z"></path><path class="cls-3" d="m627.35,57.71h-7.87v-1.55c-1.89,1.46-3.93,2.28-6.46,2.28-5.97,0-10.05-4.13-10.05-10.83v-13.45h7.87v12.23c0,3.35,1.75,4.95,4.32,4.95,1.46,0,2.96-.83,4.32-2.33v-14.86h7.87v23.55Z"></path><path class="cls-3" d="m671.82,44.26v13.45h-7.91v-12.19c0-3.35-1.6-4.95-4.22-4.95-1.21,0-2.43.53-3.59,1.94.05.58.1,1.16.1,1.75v13.45h-7.87v-12.19c0-3.35-1.65-4.95-4.22-4.95-1.21,0-2.38.58-3.54,2.09v15.05h-7.87v-23.55h7.87v1.41c1.6-1.36,3.25-2.14,5.87-2.14,2.96,0,5.49,1.12,7.24,3.16,2.48-2.18,4.86-3.16,8.35-3.16,5.63,0,9.81,4.13,9.81,10.83Z"></path></g><polygon class="cls-2" points="37.65 24.65 65.42 24.65 65.42 52.42 37.65 24.65"></polygon><polygon class="cls-2" points="9.88 24.65 37.65 24.65 37.65 52.42 9.88 24.65"></polygon><polygon class="cls-1" points="65.42 107.95 37.65 107.95 37.65 80.19 65.42 107.95"></polygon><polygon class="cls-4" points="93.22 24.65 120.99 24.65 120.99 52.42 93.22 24.65"></polygon><polygon class="cls-2" points="9.91 107.24 37.68 107.24 37.68 135.01 9.91 107.24"></polygon><polygon class="cls-2" points="65.45 24.65 93.21 24.65 93.21 52.42 65.45 24.65"></polygon><polygon class="cls-2" points="120.97 135.74 120.97 107.97 93.2 107.97 120.97 135.74"></polygon><polygon class="cls-2" points="120.97 80.17 120.97 52.4 93.2 52.4 120.97 80.17"></polygon><polygon class="cls-4" points="93.2 107.91 65.43 107.91 65.43 80.14 93.2 107.91"></polygon><polygon class="cls-4" points="37.68 52.38 37.68 80.15 65.45 80.15 37.68 52.38"></polygon><polygon class="cls-2" points="120.97 107.95 120.97 80.18 93.2 80.18 120.97 107.95"></polygon><polygon class="cls-1" points="37.65 52.42 65.42 52.42 65.42 80.19 37.65 52.42"></polygon><polygon class="cls-1" points="65.42 80.19 93.19 80.19 93.19 107.96 65.42 80.19"></polygon><polygon class="cls-4" points="65.45 52.42 93.21 52.42 93.21 80.19 65.45 52.42"></polygon></svg>